#!OML:ASF H:\Terrain\Patient Classification 1\Walking\steve\steve.ASF
:FULLY-SPECIFIED
:DEGREES
47
root 7.37843 15.6148 -25.7754 6.1082 2.21943 -2.38255
lowerback 1.1449 1.02954 3.17317
upperback -3.07715 1.59613 3.53705
thorax -3.83217 0.759927 1.80105
lowerneck -12.078 0.36104 -4.6263
upperneck 10.2955 1.33455 -0.31611
head 5.05 0.448294 0.75438
rclavicle -3.39176e-015 5.1684e-014
rhumerus -58.2807 -35.0744 -51.3716
rradius 16.8367
rwrist 20.9318
rhand -17.606 -40.2243
rfingers 7.12502
rthumb 8.65056 -70.0271
lclavicle -3.39176e-015 5.1684e-014
lhumerus -28.3086 -4.86074 91.0409
lradius 40.2491
lwrist 26.9574
lhand -25.1367 -11.0188
lfingers 7.12502
lthumb 1.37952 18.9564
rfemur -28.7493 5.93239 28.3616
rtibia 39.5665
rfoot -14.2591 8.12399
rtoes 19.3265
lfemur -16.7345 3.16073 -17.1556
ltibia 69.2402
lfoot -0.0461246 5.09035
ltoes -8.8166
48
root 7.3841 15.6574 -25.5382 6.19658 1.91833 -2.48933
lowerback 0.847409 1.19994 3.29789
upperback -3.07476 1.80899 3.51536
thorax -3.65881 0.863478 1.70568
lowerneck -11.8357 0.391122 -4.58797
upperneck 10.3703 1.37961 -0.496154
head 5.03411 0.458945 0.694815
rclavicle 1.42876e-015 7.95139e-016
rhumerus -55.2782 -34.2674 -54.827
rradius 17.4936
rwrist 18.0798
rhand -17.2312 -40.9706
rfingers 7.12502
rthumb 9.01224 -70.7581
lclavicle 1.42876e-015 7.95139e-016
lhumerus -29.245 -4.93013 91.3555
lradius 38.3177
lwrist 26.4121
lhand -24.8259 -10.5657
lfingers 7.12502
lthumb 1.67972 19.4075
rfemur -27.533 5.93523 28.5725
rtibia 38.9419
rfoot -14.1954 8.72732
rtoes 19.7261
lfemur -18.5492 3.53377 -17.1464
ltibia 69.6348
lfoot -1.35829 5.24194
ltoes -7.20692
49
root 7.39401 15.6858 -25.3071 6.26982 1.72068 -2.58565
lowerback 0.615834 1.31072 3.46658
upperback -3.07701 1.94636 3.48513
thorax -3.52473 0.927824 1.58019
lowerneck -11.7794 0.442328 -4.6874
upperneck 10.6344 1.47228 -0.525365
head 5.10506 0.49326 0.709864
rclavicle -1.5221e-014 7.95139e-015
rhumerus -52.1975 -32.7163 -58.6532
rradius 18.8499
rwrist 14.9825
rhand -17.0582 -41.5799
rfingers 7.12502
rthumb 9.17915 -71.3601
lclavicle -1.5221e-014 7.95139e-015
lhumerus -30.0818 -4.31398 91.384
lradius 36.069
lwrist 25.1484
lhand -23.4731 -11.5184
lfingers 7.12502
lthumb 2.98626 18.4405
rfemur -26.3674 5.74184 28.7822
rtibia 38.3433
rfoot -14.919 8.6223
rtoes 11.1433
lfemur -20.3949 3.73395 -17.1949
ltibia 69.8919
lfoot -3.34198 5.24916
ltoes -5.70415
50
root 7.40294 15.7119 -25.0812 6.30501 1.69907 -2.81201
lowerback 0.662958 1.38673 3.74836
upperback -3.16366 2.06414 3.53381
thorax -3.63502 0.977507 1.46754
lowerneck -11.9017 0.484788 -4.96234
upperneck 11.0109 1.57287 -0.372017
head 5.23779 0.533613 0.812522
rclavicle -3.18366e-015 -5.56597e-014
rhumerus -49.4512 -31.002 -61.8982
rradius 20.177
rwrist 11.6982
rhand -17.8009 -41.5459
rfingers 7.12502
rthumb 8.46246 -71.3563
lclavicle -3.18366e-015 -5.56597e-014
lhumerus -31.0946 -3.78241 91.5249
lradius 34.0099
lwrist 23.9849
lhand -22.411 -12.1434
lfingers 7.12502
lthumb 4.01188 17.7985
rfemur -25.227 5.44676 29.1595
rtibia 37.8124
rfoot -15.8165 8.31061
rtoes 2.9833
lfemur -22.2003 3.73681 -17.0888
ltibia 70.0394
lfoot -5.01769 4.99316
ltoes -4.15614
51
root 7.40843 15.7372 -24.8575 6.3215 1.61951 -2.97046
lowerback 0.667922 1.48539 3.96904
upperback -3.22234 2.20393 3.49831
thorax -3.6899 1.03892 1.30229
lowerneck -11.5208 0.582952 -5.04138
upperneck 10.8615 1.67182 -0.21453
head 5.12281 0.594215 0.87908
rclavicle -2.7628e-014 -3.02153e-014
rhumerus -46.9453 -29.5498 -64.6845
rradius 21.3104
rwrist 8.78227
rhand -17.4298 -40.8966
rfingers 7.12502
rthumb 8.82058 -70.6923
lclavicle -2.7628e-014 -3.02153e-014
lhumerus -32.0361 -3.27433 91.5896
lradius 31.87
lwrist 22.5227
lhand -22.069 -11.7518
lfingers 7.12502
lthumb 4.34213 18.1837
rfemur -24.0546 5.30066 29.4449
rtibia 37.3208
rfoot -16.4166 8.44424
rtoes 1.09112
lfemur -23.9476 3.87969 -17.0582
ltibia 70.0908
lfoot -6.07504 4.78071
ltoes -6.21582
52
root 7.42145 15.7529 -24.6264 6.08999 1.36744 -3.16269
lowerback 0.676133 1.59082 4.27286
upperback -3.14217 2.34691 3.46267
thorax -3.59791 1.10198 1.09188
lowerneck -10.3008 0.897182 -5.3926
upperneck 9.99284 1.9777 0.439706
head 4.63078 0.794318 1.14623
rclavicle 3.08582e-014 4.92986e-014
rhumerus -44.5084 -27.7823 -67.4234
rradius 22.6282
rwrist 6.05214
rhand -17.9139 -39.991
rfingers 7.12502
rthumb 8.35344 -69.8058
lclavicle 3.08582e-014 4.92986e-014
lhumerus -32.9284 -2.50989 91.4447
lradius 29.7491
lwrist 20.7459
lhand -21.3295 -11.2258
lfingers 7.12502
lthumb 5.05617 18.6939
rfemur -22.5809 5.16226 29.7618
rtibia 36.8628
rfoot -16.7367 8.83316
rtoes 2.51097
lfemur -25.3344 4.15443 -17.0086
ltibia 69.9632
lfoot -7.06776 4.78563
ltoes -8.37169
53
root 7.43753 15.7618 -24.3944 5.90868 1.10799 -3.28715
lowerback 0.794787 1.69649 4.51437
upperback -3.15183 2.50208 3.43321
thorax -3.66293 1.1703 0.918109
lowerneck -11.1772 0.700698 -4.56201
upperneck 11.4716 1.81412 -0.736445
head 5.26208 0.636553 0.651166
rclavicle 5.23052e-015 -2.38542e-015
rhumerus -42.4091 -25.8002 -69.8793
rradius 24.069
rwrist 3.53883
rhand -18.9976 -39.7001
rfingers 7.12502
rthumb 7.30749 -69.5539
lclavicle 5.23052e-015 -2.38542e-015
lhumerus -34.0625 -2.01388 91.4298
lradius 27.987
lwrist 19.3121
lhand -21.0036 -10.6719
lfingers 7.12502
lthumb 5.37083 19.2401
rfemur -21.2491 4.61343 30.0524
rtibia 36.4573
rfoot -17.0556 9.19964
rtoes 3.39414
lfemur -26.7312 4.35013 -17.0389
ltibia 69.5897
lfoot -8.47898 4.79534
ltoes -8.44659
54
root 7.44222 15.7641 -24.1758 6.14176 0.997282 -3.57619
lowerback 0.807738 1.82771 4.79859
upperback -3.35258 2.6986 3.44777
thorax -3.86584 1.25466 0.765457
lowerneck -11.3688 0.619726 -4.43682
upperneck 12.0209 1.73091 -0.896992
head 5.47066 0.5776 0.578315
rclavicle -8.48562e-015 -3.02153e-014
rhumerus -40.6476 -23.7443 -72.1259
rradius 25.6554
rwrist 1.16162
rhand -19.4298 -39.7571
rfingers 7.12502
rthumb 6.89025 -69.625
lclavicle -8.48562e-015 -3.02153e-014
lhumerus -35.1157 -1.56866 91.4449
lradius 26.0443
lwrist 17.7989
lhand -20.9837 -10.2434
lfingers 7.12502
lthumb 5.39005 19.6681
rfemur -20.5238 3.93521 30.5349
rtibia 36.1616
rfoot -17.3182 9.70804
rtoes 4.68456
lfemur -28.6413 4.47191 -16.9055
ltibia 69.0068
lfoot -9.61984 4.91221
ltoes -10.8435
55
root 7.44311 15.7635 -23.9565 6.48217 0.657469 -4.13066
lowerback 0.628138 2.06379 5.30805
upperback -3.46498 3.02245 3.5169
thorax -3.85585 1.40003 0.548199
lowerneck -11.0602 0.576409 -4.86285
upperneck 11.7112 1.65254 -0.41801
head 5.31501 0.562383 0.787746
rclavicle -1.97915e-014 7.15625e-015
rhumerus -38.7905 -21.278 -74.5741
rradius 28.0252
rwrist -1.97754
rhand -18.102 -40.0514
rfingers 7.12502
rthumb 8.17191 -69.8734
lclavicle -1.97915e-014 7.15625e-015
lhumerus -35.9199 -0.88753 91.2384
lradius 24.0005
lwrist 15.7523
lhand -19.8414 -7.00576
lfingers 7.12502
lthumb 6.49295 22.8747
rfemur -19.9131 3.79502 31.2213
rtibia 35.9978
rfoot -17.4525 10.2051
rtoes 6.88229
lfemur -30.5618 4.75803 -16.5225
ltibia 68.142
lfoot -10.5551 5.18156
ltoes -13.089
56
root 7.45042 15.7536 -23.732 6.66332 0.127754 -4.46905
lowerback 0.537498 2.31658 5.69988
upperback -3.48317 3.36168 3.48608
thorax -3.79255 1.55671 0.29233
lowerneck -10.7367 0.502773 -5.08673
upperneck 11.2039 1.53828 -0.264702
head 5.10212 0.519136 0.858479
rclavicle -1.11009e-014 -4.13472e-014
rhumerus -37.0815 -19.9875 -75.8577
rradius 29.4178
rwrist -4.5706
rhand -20.8277 -41.4976
rfingers 7.12502
rthumb 5.54069 -71.4051
lclavicle -1.11009e-014 -4.13472e-014
lhumerus -36.835 -0.0585534 90.7517
lradius 22.3118
lwrist 13.4852
lhand -20.3506 -0.753189
lfingers 7.12502
lthumb 6.00137 29.1418
rfemur -19.1008 3.87796 31.6022
rtibia 35.8436
rfoot -17.4527 10.7533
rtoes 8.71457
lfemur -31.9896 5.1612 -16.4215
ltibia 66.9559
lfoot -11.6253 5.18164
ltoes -12.5737
57
root 7.46675 15.7444 -23.5035 6.77578 -0.238924 -4.49355
lowerback 0.507122 2.46867 5.88362
upperback -3.48646 3.56192 3.36128
thorax -3.75368 1.64892 0.0575333
lowerneck -10.9759 0.508368 -4.78605
upperneck 11.3405 1.54332 -0.484375
head 5.18867 0.515662 0.743768
rclavicle 4.29251e-015 3.10104e-014
rhumerus -35.3763 -18.7135 -76.9246
rradius 30.3536
rwrist -6.33807
rhand -22.4404 -39.7153
rfingers 7.12502
rthumb 3.98351 -69.6579
lclavicle 4.29251e-015 3.10104e-014
lhumerus -37.7089 1.33907 89.8499
lradius 20.5227
lwrist 10.8959
lhand -26.8532 2.65593
lfingers 7.12502
lthumb -0.278287 32.6355
rfemur -18.1904 3.5112 31.6132
rtibia 35.556
rfoot -17.2497 11.7705
rtoes 9.31473
lfemur -33.1695 5.33481 -16.6829
ltibia 65.51
lfoot -12.514 5.35627
ltoes -13.4978
58
root 7.4837 15.7573 -23.2688 6.85262 -0.665338 -4.43695
lowerback 0.425712 2.59227 5.9546
upperback -3.43217 3.71308 3.24443
thorax -3.63267 1.72331 -0.101163
lowerneck -11.4145 0.642922 -4.3515
upperneck 11.8651 1.71739 -0.692275
head 5.42762 0.592718 0.627048
rclavicle -1.21631e-014 -4.77083e-015
rhumerus -33.6112 -17.0152 -78.18
rradius 31.5618
rwrist -7.59414
rhand -22.5144 -38.0484
rfingers 7.12502
rthumb 3.91207 -67.9922
lclavicle -1.21631e-014 -4.77083e-015
lhumerus -38.4192 3.55485 88.4661
lradius 18.4819
lwrist 7.4718
lhand -14.8503 -3.73445
lfingers 7.12502
lthumb 11.3091 25.9407
rfemur -17.115 3.03788 31.4997
rtibia 35.0599
rfoot -17.0193 13.1113
rtoes 9.11649
lfemur -34.2952 5.39448 -16.9845
ltibia 63.7733
lfoot -12.9926 6.09438
ltoes -16.4096
59
root 7.49434 15.7762 -23.034 6.81266 -1.23221 -4.55353
lowerback 0.445403 2.78549 6.09881
upperback -3.34193 3.96839 3.21882
thorax -3.528 1.84907 -0.212353
lowerneck -11.3746 0.742732 -4.18439
upperneck 11.9354 1.84653 -0.857953
head 5.44374 0.65015 0.558376
rclavicle 1.46479e-014 1.59028e-015
rhumerus -31.9965 -15.6578 -79.062
rradius 33.2645
rwrist -9.12964
rhand -20.519 -38.0196
rfingers 7.12502
rthumb 5.83879 -67.9191
lclavicle 1.46479e-014 1.59028e-015
lhumerus -39.2784 5.80112 86.9803
lradius 16.7605
lwrist 3.80978
lhand -16.8211 -7.29969
lfingers 7.12502
lthumb 9.40795 22.4703
rfemur -15.7889 2.7641 31.5558
rtibia 34.4002
rfoot -16.9324 14.3544
rtoes 9.31246
lfemur -35.1156 5.59962 -17.0643
ltibia 61.8969
lfoot -13.1239 6.77946
ltoes -17.1763
